<svg width="46" height="46" viewBox="0 0 46 46" fill="none" xmlns="http://www.w3.org/2000/svg">
<path d="M23 22.2821C25.6236 22.2821 27.8801 19.9393 27.8801 16.8886C27.8801 13.8747 25.6113 11.6421 23 11.6421C20.3887 11.6421 18.1191 13.924 18.1191 16.9132C18.1191 19.9393 20.3764 22.2821 23 22.2821ZM8.95604 22.5622C11.2256 22.5622 13.2028 20.5127 13.2028 17.8652C13.2028 15.2416 11.2133 13.3014 8.95604 13.3014C6.68643 13.3014 4.68543 15.2901 4.69775 17.8891C4.69775 20.5127 6.67411 22.563 8.95604 22.563M37.044 22.563C39.3259 22.563 41.3022 20.5135 41.3022 17.8899C41.3022 15.2909 39.3136 13.3022 37.044 13.3022C34.7867 13.3022 32.7972 15.2424 32.7972 17.8652C32.7972 20.5135 34.7744 22.563 37.044 22.563ZM2.14721 33.5808H11.4211C10.152 31.7383 11.7012 28.0288 14.3249 26.0031C12.9695 25.1004 11.2256 24.4293 8.94454 24.4293C3.44014 24.4293 0 28.4921 0 31.8722C0 32.9705 0.610321 33.5808 2.14721 33.5808ZM43.8528 33.5808C45.402 33.5808 46 32.9705 46 31.8722C46 28.4921 42.559 24.4293 37.0563 24.4293C34.7744 24.4293 33.0296 25.1004 31.6759 26.0031C34.2988 28.0288 35.8488 31.7383 34.5797 33.5808H43.8528ZM15.3246 33.5808H30.6623C32.5779 33.5808 33.2613 33.0313 33.2613 31.9577C33.2613 28.8099 29.3201 24.4662 22.9877 24.4662C16.6676 24.4662 12.7264 28.8099 12.7264 31.9577C12.7264 33.0313 13.409 33.5808 15.3246 33.5808Z" fill="#1B75FD"/>
</svg>
