<svg width="49" height="49" viewBox="0 0 49 49" fill="none" xmlns="http://www.w3.org/2000/svg">
<path d="M26.2122 16.1307V8.06536C26.2122 7.49406 26.4058 7.01552 26.7929 6.62972C27.1801 6.24393 27.6586 6.05036 28.2286 6.04902H40.3266C40.8979 6.04902 41.3771 6.24259 41.7642 6.62972C42.1514 7.01686 42.3443 7.49541 42.3429 8.06536V16.1307C42.3429 16.702 42.1494 17.1812 41.7622 17.5684C41.3751 17.9555 40.8965 18.1484 40.3266 18.1471H28.2286C27.6573 18.1471 27.1787 17.9535 26.7929 17.5663C26.4071 17.1792 26.2136 16.7007 26.2122 16.1307ZM6.04883 24.1961V8.06536C6.04883 7.49406 6.2424 7.01552 6.62953 6.62972C7.01667 6.24393 7.49522 6.05036 8.06517 6.04902H20.1632C20.7345 6.04902 21.2137 6.24259 21.6009 6.62972C21.988 7.01686 22.1809 7.49541 22.1795 8.06536V24.1961C22.1795 24.7674 21.986 25.2466 21.5988 25.6337C21.2117 26.0209 20.7332 26.2138 20.1632 26.2124H8.06517C7.49387 26.2124 7.01533 26.0188 6.62953 25.6317C6.24374 25.2446 6.05017 24.766 6.04883 24.1961ZM26.2122 40.3268V24.1961C26.2122 23.6248 26.4058 23.1462 26.7929 22.7604C27.1801 22.3746 27.6586 22.1811 28.2286 22.1797H40.3266C40.8979 22.1797 41.3771 22.3733 41.7642 22.7604C42.1514 23.1476 42.3443 23.6261 42.3429 24.1961V40.3268C42.3429 40.8981 42.1494 41.3773 41.7622 41.7644C41.3751 42.1516 40.8965 42.3445 40.3266 42.3431H28.2286C27.6573 42.3431 27.1787 42.1496 26.7929 41.7624C26.4071 41.3753 26.2136 40.8967 26.2122 40.3268ZM6.04883 40.3268V32.2614C6.04883 31.6901 6.2424 31.2116 6.62953 30.8258C7.01667 30.44 7.49522 30.2464 8.06517 30.2451H20.1632C20.7345 30.2451 21.2137 30.4387 21.6009 30.8258C21.988 31.2129 22.1809 31.6915 22.1795 32.2614V40.3268C22.1795 40.8981 21.986 41.3773 21.5988 41.7644C21.2117 42.1516 20.7332 42.3445 20.1632 42.3431H8.06517C7.49387 42.3431 7.01533 42.1496 6.62953 41.7624C6.24374 41.3753 6.05017 40.8967 6.04883 40.3268ZM10.0815 22.1797H18.1469V10.0817H10.0815V22.1797ZM30.2449 38.3104H38.3103V26.2124H30.2449V38.3104ZM30.2449 14.1144H38.3103V10.0817H30.2449V14.1144ZM10.0815 38.3104H18.1469V34.2778H10.0815V38.3104Z" fill="#1B75FD"/>
</svg>
