<svg width="461" height="150" viewBox="0 0 461 150" fill="none" xmlns="http://www.w3.org/2000/svg">
<g filter="url(#filter0_d_26_658)">
<path d="M10.7812 52.2822H19.5469L41.9062 107.923L64.2188 52.2822H73.0312L45.2812 120.532H38.4375L10.7812 52.2822ZM7.92188 52.2822H15.6562L16.9219 93.9072V120.532H7.92188V52.2822ZM68.1094 52.2822H75.8438V120.532H66.8438V93.9072L68.1094 52.2822ZM104.672 115.282L118.781 69.8135H128.062L107.719 128.36C107.25 129.61 106.625 130.954 105.844 132.392C105.094 133.86 104.125 135.251 102.938 136.563C101.75 137.876 100.312 138.938 98.625 139.751C96.9688 140.595 94.9844 141.017 92.6719 141.017C91.9844 141.017 91.1094 140.923 90.0469 140.735C88.9844 140.548 88.2344 140.392 87.7969 140.267L87.75 133.235C88 133.267 88.3906 133.298 88.9219 133.329C89.4844 133.392 89.875 133.423 90.0938 133.423C92.0625 133.423 93.7344 133.157 95.1094 132.626C96.4844 132.126 97.6406 131.267 98.5781 130.048C99.5469 128.86 100.375 127.22 101.062 125.126L104.672 115.282ZM94.3125 69.8135L107.484 109.188L109.734 118.329L103.5 121.517L84.8438 69.8135H94.3125ZM162.375 93.7666H144.141V86.4072H162.375C165.906 86.4072 168.766 85.8447 170.953 84.7197C173.141 83.5947 174.734 82.0322 175.734 80.0322C176.766 78.0322 177.281 75.751 177.281 73.1885C177.281 70.8447 176.766 68.6416 175.734 66.5791C174.734 64.5166 173.141 62.8604 170.953 61.6104C168.766 60.3291 165.906 59.6885 162.375 59.6885H146.25V120.532H137.203V52.2822H162.375C167.531 52.2822 171.891 53.1729 175.453 54.9541C179.016 56.7354 181.719 59.2041 183.562 62.3604C185.406 65.4854 186.328 69.0635 186.328 73.0947C186.328 77.4697 185.406 81.2041 183.562 84.2979C181.719 87.3916 179.016 89.751 175.453 91.376C171.891 92.9697 167.531 93.7666 162.375 93.7666ZM222.938 93.7666H204.703V86.4072H222.938C226.469 86.4072 229.328 85.8447 231.516 84.7197C233.703 83.5947 235.297 82.0322 236.297 80.0322C237.328 78.0322 237.844 75.751 237.844 73.1885C237.844 70.8447 237.328 68.6416 236.297 66.5791C235.297 64.5166 233.703 62.8604 231.516 61.6104C229.328 60.3291 226.469 59.6885 222.938 59.6885H206.812V120.532H197.766V52.2822H222.938C228.094 52.2822 232.453 53.1729 236.016 54.9541C239.578 56.7354 242.281 59.2041 244.125 62.3604C245.969 65.4854 246.891 69.0635 246.891 73.0947C246.891 77.4697 245.969 81.2041 244.125 84.2979C242.281 87.3916 239.578 89.751 236.016 91.376C232.453 92.9697 228.094 93.7666 222.938 93.7666ZM293.344 112.704L310.688 126.438L304.594 132.063L287.531 118.517L293.344 112.704ZM310.453 84.251V88.5635C310.453 93.6885 309.812 98.2822 308.531 102.345C307.25 106.407 305.406 109.86 303 112.704C300.594 115.548 297.703 117.72 294.328 119.22C290.984 120.72 287.234 121.47 283.078 121.47C279.047 121.47 275.344 120.72 271.969 119.22C268.625 117.72 265.719 115.548 263.25 112.704C260.812 109.86 258.922 106.407 257.578 102.345C256.234 98.2822 255.562 93.6885 255.562 88.5635V84.251C255.562 79.126 256.219 74.5479 257.531 70.5166C258.875 66.4541 260.766 63.001 263.203 60.1572C265.641 57.2822 268.531 55.0947 271.875 53.5947C275.25 52.0947 278.953 51.3447 282.984 51.3447C287.141 51.3447 290.906 52.0947 294.281 53.5947C297.656 55.0947 300.547 57.2822 302.953 60.1572C305.359 63.001 307.203 66.4541 308.484 70.5166C309.797 74.5479 310.453 79.126 310.453 84.251ZM301.5 88.5635V84.1572C301.5 80.0947 301.078 76.501 300.234 73.376C299.422 70.251 298.219 67.626 296.625 65.501C295.031 63.376 293.094 61.7666 290.812 60.6729C288.531 59.5791 285.922 59.0322 282.984 59.0322C280.203 59.0322 277.672 59.5791 275.391 60.6729C273.141 61.7666 271.203 63.376 269.578 65.501C267.953 67.626 266.703 70.251 265.828 73.376C264.953 76.501 264.516 80.0947 264.516 84.1572V88.5635C264.516 92.6572 264.953 96.2822 265.828 99.4385C266.703 102.563 267.953 105.204 269.578 107.36C271.234 109.485 273.203 111.095 275.484 112.188C277.766 113.282 280.297 113.829 283.078 113.829C286.016 113.829 288.625 113.282 290.906 112.188C293.188 111.095 295.109 109.485 296.672 107.36C298.266 105.204 299.469 102.563 300.281 99.4385C301.094 96.2822 301.5 92.6572 301.5 88.5635ZM334.125 52.2822V120.532H325.078V52.2822H334.125ZM374.391 52.2822V120.532H365.484V52.2822H374.391ZM396.328 52.2822V59.6885H343.594V52.2822H396.328ZM427.969 58.3291L405.375 120.532H396.141L422.156 52.2822H428.109L427.969 58.3291ZM446.906 120.532L424.266 58.3291L424.125 52.2822H430.078L456.188 120.532H446.906ZM445.734 95.2666V102.673H407.391V95.2666H445.734Z" fill="white"/>
</g>
<path d="M306.246 23.5496C307.686 24.6407 312.771 26.081 316.961 29.1742C321.109 32.2369 323.333 35.5408 325.324 37.1774C329.966 40.9928 335.684 34.8316 339.148 31.5637C342.491 28.4106 346.595 26.1028 350.059 22.835C353.402 19.6818 357.506 17.374 361.876 14.8318C366.246 11.9185 369.519 9.73634 371.696 8.28518C372.792 7.55414 373.872 6.83402 377.167 5.00098" stroke="#FE0000" stroke-width="10" stroke-linecap="round"/>
<defs>
<filter id="filter0_d_26_658" x="3.92188" y="51.3447" width="456.266" height="97.6719" filterUnits="userSpaceOnUse" color-interpolation-filters="sRGB">
<feFlood flood-opacity="0" result="BackgroundImageFix"/>
<feColorMatrix in="SourceAlpha" type="matrix" values="0 0 0 0 0 0 0 0 0 0 0 0 0 0 0 0 0 0 127 0" result="hardAlpha"/>
<feOffset dy="4"/>
<feGaussianBlur stdDeviation="2"/>
<feComposite in2="hardAlpha" operator="out"/>
<feColorMatrix type="matrix" values="0 0 0 0 0 0 0 0 0 0 0 0 0 0 0 0 0 0 0.25 0"/>
<feBlend mode="normal" in2="BackgroundImageFix" result="effect1_dropShadow_26_658"/>
<feBlend mode="normal" in="SourceGraphic" in2="effect1_dropShadow_26_658" result="shape"/>
</filter>
</defs>
</svg>
