<svg width="49" height="49" viewBox="0 0 49 49" fill="none" xmlns="http://www.w3.org/2000/svg">
<g clip-path="url(#clip0_80_758)">
<path d="M33.2696 21.1716C33.2696 26.1922 29.2168 30.2451 24.1961 30.2451C19.1754 30.2451 15.1226 26.1922 15.1226 21.1716C15.1226 16.1509 19.1754 12.098 24.1961 12.098C29.2168 12.098 33.2696 16.1509 33.2696 21.1716Z" fill="#1B75FD"/>
<path fill-rule="evenodd" clip-rule="evenodd" d="M48.3921 24.1961C48.3921 37.5644 37.5644 48.3921 24.1961 48.3921C10.8277 48.3921 0 37.5644 0 24.1961C0 10.8277 10.8277 0 24.1961 0C37.5644 0 48.3921 10.8277 48.3921 24.1961ZM12.098 41.587C12.582 40.7825 17.2699 33.2696 24.1658 33.2696C31.0315 33.2696 35.7497 40.8006 36.2336 41.587C39.046 39.6422 41.3439 37.0434 42.9297 34.014C44.5155 30.9846 45.3418 27.6154 45.3374 24.1961C45.3374 12.4912 35.8707 3.02451 24.1658 3.02451C12.461 3.02451 2.99426 12.4912 2.99426 24.1961C2.99426 31.3944 6.59343 37.7761 12.098 41.587Z" fill="#1B75FD"/>
</g>
<defs>
<clipPath id="clip0_80_758">
<rect width="48.3921" height="48.3921" fill="white"/>
</clipPath>
</defs>
</svg>
