<svg width="46" height="46" viewBox="0 0 46 46" fill="none" xmlns="http://www.w3.org/2000/svg">
<g clip-path="url(#clip0_80_765)">
<path d="M30.5325 35.535C30.3411 35.0654 29.9714 34.6908 29.5044 34.4933C29.0374 34.2957 28.5111 34.2912 28.0408 34.4808C24.8113 35.7743 21.2078 35.7743 17.9783 34.4808C17.7455 34.3852 17.4961 34.3364 17.2444 34.3371C16.9927 34.3378 16.7436 34.3881 16.5113 34.4851C16.2791 34.5821 16.0682 34.7239 15.8907 34.9024C15.7133 35.0809 15.5727 35.2926 15.477 35.5254C15.3814 35.7583 15.3325 36.0076 15.3333 36.2593C15.334 36.511 15.3843 36.7601 15.4813 36.9924C15.5783 37.2247 15.7201 37.4355 15.8986 37.613C16.0771 37.7905 16.2888 37.931 16.5216 38.0267C20.6764 39.7103 25.3235 39.7103 29.4783 38.0267C29.9479 37.8353 30.3225 37.4656 30.5201 36.9986C30.7176 36.5316 30.7221 36.0053 30.5325 35.535ZM30.5516 10.9442C32.3599 12.1756 33.8397 13.8305 34.8619 15.7648C35.8842 17.699 36.4179 19.8539 36.4166 22.0417C36.4122 22.6051 36.3803 23.168 36.3208 23.7283C36.2906 23.9801 36.3103 24.2352 36.3787 24.4793C36.4471 24.7234 36.5629 24.9517 36.7195 25.151C36.8762 25.3503 37.0705 25.5169 37.2915 25.6411C37.5125 25.7653 37.7558 25.8448 38.0075 25.875C38.2592 25.9052 38.5143 25.8856 38.7584 25.8171C39.0025 25.7487 39.2308 25.6329 39.4301 25.4763C39.6294 25.3197 39.796 25.1253 39.9202 24.9043C40.0444 24.6833 40.1239 24.44 40.1541 24.1883C40.2362 23.4759 40.2683 22.7586 40.25 22.0417C40.2512 19.231 39.5656 16.4625 38.2528 13.9772C36.94 11.4919 35.0398 9.36506 32.7175 7.78168C32.5099 7.63579 32.2755 7.53255 32.0278 7.47794C31.7801 7.42333 31.524 7.41844 31.2743 7.46355C31.0247 7.50867 30.7865 7.60289 30.5735 7.74075C30.3606 7.87861 30.1771 8.05737 30.0338 8.26667C29.8905 8.47597 29.7901 8.71164 29.7385 8.96002C29.687 9.20839 29.6852 9.46454 29.7334 9.7136C29.7815 9.96266 29.8787 10.1997 30.0191 10.4109C30.1596 10.6222 30.3406 10.8034 30.5516 10.9442ZM8.01163 25.8558C8.51428 25.7935 8.97183 25.5348 9.28429 25.1361C9.59674 24.7375 9.7387 24.2313 9.67913 23.7283C9.65163 23.1665 9.65163 22.6036 9.67913 22.0417C9.66717 19.8625 10.1862 17.7131 11.1914 15.7795C12.1966 13.8459 13.6577 12.1863 15.4483 10.9442C15.6593 10.8034 15.8403 10.6222 15.9808 10.4109C16.1213 10.1997 16.2184 9.96266 16.2665 9.7136C16.3147 9.46454 16.313 9.20839 16.2614 8.96002C16.2098 8.71164 16.1095 8.47597 15.9661 8.26667C15.8228 8.05737 15.6393 7.87861 15.4264 7.74075C15.2134 7.60289 14.9752 7.50867 14.7256 7.46355C14.476 7.41844 14.2199 7.42333 13.9721 7.47794C13.7244 7.53255 13.49 7.63579 13.2825 7.78168C10.9602 9.36506 9.05995 11.4919 7.74715 13.9772C6.43435 16.4625 5.74874 19.231 5.74996 22.0417C5.74438 22.7595 5.78921 23.4768 5.88413 24.1883C5.94646 24.691 6.20522 25.1486 6.60387 25.461C7.00252 25.7735 7.50864 25.9154 8.01163 25.8558ZM30.0341 18.2083C30.1069 18.2106 30.1793 18.1963 30.2457 18.1664C30.3121 18.1365 30.3709 18.0918 30.4175 18.0358C30.4603 17.979 30.4909 17.9138 30.5074 17.8446C30.5238 17.7753 30.5259 17.7034 30.5133 17.6333C30.126 15.9108 29.1645 14.3711 27.7867 13.2672C26.4088 12.1633 24.6965 11.5608 22.931 11.5585C21.1654 11.5563 19.4516 12.1545 18.0709 13.255C16.6903 14.3554 15.7249 15.8926 15.3333 17.6142C15.3011 17.6798 15.2844 17.7519 15.2844 17.825C15.2844 17.8981 15.3011 17.9702 15.3333 18.0358C15.4277 18.1385 15.5583 18.2003 15.6975 18.2083H30.0341ZM18.2083 4.79168C18.2083 6.06251 18.7131 7.28129 19.6117 8.1799C20.5104 9.07851 21.7291 9.58335 23 9.58335C24.2708 9.58335 25.4896 9.07851 26.3882 8.1799C27.2868 7.28129 27.7916 6.06251 27.7916 4.79168C27.7916 3.52085 27.2868 2.30207 26.3882 1.40346C25.4896 0.50485 24.2708 1.52588e-05 23 1.52588e-05C21.7291 1.52588e-05 20.5104 0.50485 19.6117 1.40346C18.7131 2.30207 18.2083 3.52085 18.2083 4.79168ZM38.3333 39.2917C36.5452 39.2775 34.8069 39.8796 33.4106 40.9966C32.0143 42.1137 31.0453 43.6775 30.6666 45.425C30.6526 45.4939 30.6538 45.565 30.6703 45.6333C30.6867 45.7016 30.718 45.7654 30.7619 45.8203C30.8058 45.8751 30.8612 45.9197 30.9243 45.9507C30.9873 45.9818 31.0564 45.9986 31.1266 46H45.425C45.5699 45.993 45.7069 45.9313 45.8083 45.8275C45.8368 45.7609 45.8514 45.6892 45.8514 45.6167C45.8514 45.5442 45.8368 45.4725 45.8083 45.4059C45.4329 43.6938 44.4906 42.1586 43.134 41.049C41.7773 39.9393 40.0858 39.3201 38.3333 39.2917ZM33.5991 32.5833C33.5991 33.8542 34.104 35.073 35.0026 35.9716C35.9012 36.8702 37.12 37.375 38.3908 37.375C39.6616 37.375 40.8804 36.8702 41.779 35.9716C42.6776 35.073 43.1825 33.8542 43.1825 32.5833C43.1825 31.3125 42.6776 30.0937 41.779 29.1951C40.8804 28.2965 39.6616 27.7917 38.3908 27.7917C37.12 27.7917 35.9012 28.2965 35.0026 29.1951C34.104 30.0937 33.5991 31.3125 33.5991 32.5833ZM7.66663 39.2917C5.87858 39.2775 4.14021 39.8796 2.74393 40.9966C1.34766 42.1137 0.37867 43.6775 -3.5883e-05 45.425C-0.0280244 45.4884 -0.0424805 45.557 -0.0424805 45.6263C-0.0424805 45.6956 -0.0280244 45.7641 -3.5883e-05 45.8275C0.0618202 45.9175 0.152538 45.9836 0.257102 46.015C0.361666 46.0463 0.473807 46.0411 0.574964 46H14.8541C14.928 46.0022 15.0014 45.9872 15.0685 45.9563C15.1357 45.9254 15.1948 45.8794 15.2412 45.8219C15.2876 45.7643 15.32 45.6968 15.336 45.6247C15.352 45.5525 15.3511 45.4776 15.3333 45.4059C14.9475 43.6635 13.976 42.1062 12.5808 40.9935C11.1856 39.8808 9.45112 39.2802 7.66663 39.2917ZM3.00913 32.5833C3.00913 33.8542 3.51397 35.073 4.41258 35.9716C5.31119 36.8702 6.52997 37.375 7.8008 37.375C9.07163 37.375 10.2904 36.8702 11.189 35.9716C12.0876 35.073 12.5925 33.8542 12.5925 32.5833C12.5925 31.3125 12.0876 30.0937 11.189 29.1951C10.2904 28.2965 9.07163 27.7917 7.8008 27.7917C6.52997 27.7917 5.31119 28.2965 4.41258 29.1951C3.51397 30.0937 3.00913 31.3125 3.00913 32.5833Z" fill="#1B75FD"/>
</g>
<defs>
<clipPath id="clip0_80_765">
<rect width="46" height="46" fill="white"/>
</clipPath>
</defs>
</svg>
