<svg width="46" height="46" viewBox="0 0 46 46" fill="none" xmlns="http://www.w3.org/2000/svg">
<g clip-path="url(#clip0_92_770)">
<path d="M12.9565 24.1308H34.9598C36.3646 24.1258 37.7101 23.5642 38.7016 22.5691C39.6931 21.5739 40.2498 20.2264 40.2498 18.8217V5.29C40.2448 3.88856 39.6858 2.54596 38.6949 1.55498C37.7039 0.56401 36.3613 0.00505029 34.9598 0L12.9565 0C11.5551 0.00505029 10.2125 0.56401 9.22149 1.55498C8.23051 2.54596 7.67155 3.88856 7.6665 5.29V18.8217C7.6665 20.2264 8.22322 21.5739 9.21474 22.5691C10.2063 23.5642 11.5517 24.1258 12.9565 24.1308ZM11.4998 5.29C11.4998 4.90367 11.6533 4.53316 11.9265 4.25998C12.1997 3.9868 12.5702 3.83333 12.9565 3.83333H34.9598C35.1511 3.83333 35.3406 3.87101 35.5173 3.94422C35.694 4.01742 35.8546 4.12472 35.9899 4.25998C36.1251 4.39524 36.2324 4.55583 36.3056 4.73256C36.3788 4.90929 36.4165 5.09871 36.4165 5.29V18.8217C36.4165 19.2098 36.2637 19.5823 35.991 19.8585C35.7184 20.1347 35.3479 20.2925 34.9598 20.2975H31.5865C31.5216 20.2966 31.4576 20.2826 31.3983 20.2562C31.339 20.2299 31.2856 20.1918 31.2415 20.1442C30.08 18.9997 28.66 18.1516 27.1015 17.6717C27.0223 17.6329 26.9553 17.573 26.908 17.4986C26.8607 17.4242 26.8348 17.3382 26.8332 17.25C26.8246 17.1568 26.8415 17.063 26.882 16.9786C26.9225 16.8943 26.9851 16.8224 27.0632 16.7708C28.0824 16.1571 28.8724 15.2264 29.3125 14.1211C29.7526 13.0158 29.8184 11.7968 29.4999 10.6505C29.1815 9.50422 28.4962 8.49384 27.5491 7.77395C26.6019 7.05406 25.4449 6.66429 24.2553 6.66429C23.0656 6.66429 21.9086 7.05406 20.9615 7.77395C20.0143 8.49384 19.329 9.50422 19.0106 10.6505C18.6921 11.7968 18.7579 13.0158 19.198 14.1211C19.6381 15.2264 20.4281 16.1571 21.4473 16.7708C21.5307 16.8131 21.5992 16.8798 21.6437 16.962C21.6882 17.0441 21.7066 17.1379 21.6965 17.2308C21.6827 17.3236 21.643 17.4106 21.582 17.4818C21.5209 17.553 21.4411 17.6055 21.3515 17.6333C19.803 18.1299 18.3964 18.991 17.2498 20.1442C17.2057 20.1918 17.1524 20.2299 17.0931 20.2562C17.0338 20.2826 16.9697 20.2966 16.9048 20.2975H12.9565C12.5684 20.2925 12.1979 20.1347 11.9253 19.8585C11.6527 19.5823 11.4998 19.2098 11.4998 18.8217V5.29ZM44.8307 44.4475C43.5761 42.8885 41.8788 41.7459 39.9623 41.17C39.8749 41.1385 39.7971 41.0849 39.7367 41.0143C39.6762 40.9438 39.6351 40.8587 39.6173 40.7675C39.608 40.6769 39.6247 40.5855 39.6654 40.504C39.7061 40.4226 39.7692 40.3544 39.8473 40.3075C40.878 39.6928 41.6784 38.7569 42.1259 37.6433C42.5733 36.5298 42.6429 35.3002 42.3241 34.1433C42.0053 32.9864 41.3156 31.9661 40.361 31.2389C39.4064 30.5117 38.2395 30.1179 37.0394 30.1179C35.8394 30.1179 34.6725 30.5117 33.7178 31.2389C32.7632 31.9661 32.0735 32.9864 31.7547 34.1433C31.4359 35.3002 31.5056 36.5298 31.953 37.6433C32.4004 38.7569 33.2009 39.6928 34.2315 40.3075C34.3081 40.3579 34.3693 40.4285 34.4084 40.5114C34.4474 40.5944 34.4629 40.6865 34.4529 40.7776C34.443 40.8688 34.4082 40.9554 34.3522 41.028C34.2962 41.1006 34.2213 41.1564 34.1357 41.1892C32.7746 41.5936 31.523 42.3013 30.4748 43.2592C30.3827 43.3339 30.2676 43.3746 30.149 43.3746C30.0304 43.3746 29.9153 43.3339 29.8232 43.2592C28.7173 42.2812 27.408 41.561 25.9898 41.1508C25.9024 41.1194 25.8246 41.0657 25.7642 40.9952C25.7037 40.9246 25.6626 40.8396 25.6448 40.7483C25.6355 40.6577 25.6522 40.5663 25.6929 40.4849C25.7336 40.4034 25.7967 40.3352 25.8748 40.2883C26.9055 39.6736 27.7059 38.7377 28.1534 37.6242C28.6008 36.5106 28.6704 35.2811 28.3516 34.1241C28.0328 32.9672 27.3431 31.9469 26.3885 31.2197C25.4339 30.4926 24.267 30.0988 23.0669 30.0988C21.8669 30.0988 20.7 30.4926 19.7453 31.2197C18.7907 31.9469 18.101 32.9672 17.7822 34.1241C17.4634 35.2811 17.5331 36.5106 17.9805 37.6242C18.4279 38.7377 19.2284 39.6736 20.259 40.2883C20.3393 40.3306 20.4065 40.3941 20.4533 40.4717C20.5002 40.5494 20.525 40.6384 20.525 40.7292C20.525 40.8199 20.5002 40.9089 20.4533 40.9866C20.4065 41.0643 20.3393 41.1277 20.259 41.17C18.8214 41.6126 17.5083 42.3874 16.4257 43.4317C16.3339 43.5152 16.2143 43.5614 16.0903 43.5614C15.9662 43.5614 15.8466 43.5152 15.7548 43.4317C14.6742 42.3805 13.3609 41.599 11.9215 41.1508C11.822 41.1417 11.7279 41.1016 11.6523 41.0363C11.5767 40.971 11.5234 40.8837 11.4998 40.7867C11.472 40.6865 11.4775 40.5799 11.5155 40.4831C11.5535 40.3863 11.622 40.3044 11.7107 40.25C12.7356 39.6358 13.5309 38.7025 13.9746 37.5931C14.4183 36.4836 14.4861 35.2593 14.1674 34.1077C13.8488 32.9561 13.1614 31.9408 12.2104 31.2172C11.2595 30.4937 10.0976 30.1019 8.90275 30.1019C7.70788 30.1019 6.54597 30.4937 5.59506 31.2172C4.64416 31.9408 3.95671 32.9561 3.63807 34.1077C3.31943 35.2593 3.38717 36.4836 3.83091 37.5931C4.27465 38.7025 5.06991 39.6358 6.09484 40.25C6.17463 40.295 6.23915 40.3629 6.28013 40.4449C6.32111 40.5268 6.33668 40.6191 6.32484 40.71C6.31479 40.8013 6.27874 40.8877 6.22098 40.9591C6.16321 41.0304 6.08617 41.0837 5.999 41.1125C4.09835 41.689 2.4153 42.8244 1.169 44.3708C1.05794 44.513 0.988416 44.6832 0.968119 44.8625C0.947821 45.0418 0.977547 45.2232 1.054 45.3867C1.12166 45.5623 1.23953 45.7141 1.39291 45.8232C1.54629 45.9323 1.7284 45.9938 1.9165 46H44.0832C44.2628 46.0004 44.4389 45.9502 44.5914 45.8553C44.7439 45.7605 44.8666 45.6246 44.9457 45.4633C45.0221 45.2999 45.0519 45.1185 45.0316 44.9392C45.0113 44.7599 44.9417 44.5897 44.8307 44.4475Z" fill="#1B75FD"/>
</g>
<defs>
<clipPath id="clip0_92_770">
<rect width="46" height="46" fill="white"/>
</clipPath>
</defs>
</svg>
