<svg width="48" height="48" viewBox="0 0 48 48" fill="none" xmlns="http://www.w3.org/2000/svg">
<path d="M20 16V12C20 10.9391 20.4214 9.92172 21.1716 9.17157C21.9217 8.42143 22.9391 8 24 8H38C39.0609 8 40.0783 8.42143 40.8284 9.17157C41.5786 9.92172 42 10.9391 42 12V36C42 37.0609 41.5786 38.0783 40.8284 38.8284C40.0783 39.5786 39.0609 40 38 40H24C22.9391 40 21.9217 39.5786 21.1716 38.8284C20.4214 38.0783 20 37.0609 20 36V32" stroke="#F24822" stroke-width="4" stroke-linecap="round" stroke-linejoin="round"/>
<path d="M30 24H6M6 24L12 18M6 24L12 30" stroke="#F24822" stroke-width="4" stroke-linecap="round" stroke-linejoin="round"/>
</svg>
